<?xml version="1.0" encoding="UTF-8" standalone="no"?>
<!-- Created with Inkscape (http://www.inkscape.org/) -->

<svg
   xmlns:dc="http://purl.org/dc/elements/1.1/"
   xmlns:cc="http://creativecommons.org/ns#"
   xmlns:rdf="http://www.w3.org/1999/02/22-rdf-syntax-ns#"
   xmlns:svg="http://www.w3.org/2000/svg"
   xmlns="http://www.w3.org/2000/svg"
   xmlns:sodipodi="http://sodipodi.sourceforge.net/DTD/sodipodi-0.dtd"
   xmlns:inkscape="http://www.inkscape.org/namespaces/inkscape"
   version="1.1"
   id="svg8489"
   xml:space="preserve"
   width="800"
   height="800"
   viewBox="0 0 800 800"
   sodipodi:docname="wings-clip-art-publicdomainvectors.org.svg"
   inkscape:version="0.92.4 (5da689c313, 2019-01-14)"><metadata
     id="metadata8495"><rdf:RDF><cc:Work
         rdf:about=""><dc:format>image/svg+xml</dc:format><dc:type
           rdf:resource="http://purl.org/dc/dcmitype/StillImage" /><dc:title></dc:title></cc:Work></rdf:RDF></metadata><defs
     id="defs8493"><clipPath
       clipPathUnits="userSpaceOnUse"
       id="clipPath8505"><path
         d="M 0,600 H 600 V 0 H 0 Z"
         id="path8503"
         inkscape:connector-curvature="0" /></clipPath></defs><sodipodi:namedview
     pagecolor="#ffffff"
     bordercolor="#666666"
     borderopacity="1"
     objecttolerance="10"
     gridtolerance="10"
     guidetolerance="10"
     inkscape:pageopacity="0"
     inkscape:pageshadow="2"
     inkscape:window-width="1920"
     inkscape:window-height="1018"
     id="namedview8491"
     showgrid="false"
     inkscape:zoom="0.8881383"
     inkscape:cx="545.76271"
     inkscape:cy="369.49153"
     inkscape:window-x="-8"
     inkscape:window-y="-8"
     inkscape:window-maximized="1"
     inkscape:current-layer="g8497" /><g
     id="g8497"
     inkscape:groupmode="layer"
     inkscape:label="wings-clip-art-publicdomainvectors.org"
     transform="matrix(1.3333333,0,0,-1.3333333,0,800)"><g
       id="g8499"><g
         id="g8501"
         clip-path="url(#clipPath8505)"><path
           d="m 301.48,308.741 c -21.001,0 -38.085,17.085 -38.085,38.086 0,21.001 17.084,38.088 38.085,38.088 21.001,0 38.087,-17.087 38.087,-38.088 0,-21.001 -17.086,-38.086 -38.087,-38.086 m 0,81.354 c -23.857,0 -43.266,-19.41 -43.266,-43.268 0,-23.856 19.409,-43.266 43.266,-43.266 23.858,0 43.267,19.41 43.267,43.266 0,23.858 -19.409,43.268 -43.267,43.268 m 0,-90.085 c -25.815,0 -46.817,21.002 -46.817,46.817 0,25.816 21.002,46.819 46.817,46.819 25.817,0 46.818,-21.003 46.818,-46.819 0,-25.815 -21.001,-46.817 -46.818,-46.817 m -70.147,7.245 c -9.72,-0.595 -16.539,8.021 -17.709,10.308 l 37.586,0.687 c 1.911,-3.349 4.144,-6.485 6.66,-9.373 l 0.002,-0.002 z m -109.386,86.422 c 10e-4,-0.003 10e-4,-0.012 0.002,-0.017 -0.001,0.005 -0.001,0.014 -0.002,0.017 M 243.741,350.29 c -0.069,-1.146 -0.113,-2.3 -0.113,-3.463 0,-2.796 0.21,-5.541 0.596,-8.231 l -0.241,0.01 -42.656,2.488 c -12.025,4.86 -15.034,16.213 -15.034,16.213 0,0 57.455,-6.896 57.448,-7.017 m 0.589,5.528 -51.249,6.44 c -14.252,1.79 -19.919,17.743 -20.78,21.783 l 76.105,-14.221 c -1.919,-4.411 -3.308,-9.103 -4.076,-14.002 m -25.105,-32.964 c -8.757,0 -16.85,9.969 -17.844,12.778 l 43.756,-1.882 c 0.872,-3.757 2.109,-7.372 3.674,-10.811 z M 105.81,311.8 c -0.995,1.491 -1.474,2.897 -1.305,3.774 l 58.902,1.073 c 1.476,-6.646 7.176,-11.114 9.609,-12.955 l -39.471,-2.411 c -1.185,-0.098 -2.372,-0.148 -3.528,-0.148 -12.609,0 -20.92,5.747 -24.207,10.667 m -27.437,29.119 69.811,-3.001 c 1.114,-6.801 6.15,-11.935 10.602,-15.241 l -57.756,-0.17 c -6.544,0 -14.846,6.336 -19.663,12.595 -1.869,2.428 -2.995,4.634 -2.994,5.817 m -21.472,29.415 73.915,-7.93 c 0.053,-0.236 0.105,-0.506 0.163,-0.808 0.556,-2.887 1.695,-8.794 9.311,-16.942 l -61.389,3.577 c -9.728,0.569 -15.94,8.452 -18.158,11.815 -2.836,4.295 -4.138,8.509 -3.842,10.288 m 1.055,8.901 c -5.33,0.67 -11.6,5.239 -17.201,12.533 -5.119,6.669 -8.38,14.106 -8.097,18.367 l 80.292,-15.003 c 0.384,-3.121 2.26,-13.23 10.939,-24.18 z m 117.32,-14.74 -36.497,4.585 c -9.213,1.158 -15.502,19.857 -15.903,24.183 -0.001,0.005 -0.001,0.01 -0.002,0.014 l 39.137,-7.313 c 0.617,-3.384 4.094,-13.274 13.265,-21.469 m -22.82,-20.551 c -7.339,3.817 -11.958,9.72 -13.724,17.548 -0.005,0.023 -0.009,0.043 -0.014,0.065 l 40.668,-4.364 c 0.022,-0.11 0.045,-0.246 0.068,-0.383 0.401,-2.345 1.58,-9.24 9.493,-14.993 z m 3.097,-6.343 38.814,-1.668 c 0.14,-3.122 1.814,-6.365 4.863,-9.406 1.596,-1.59 3.361,-2.907 4.624,-3.718 l -33.559,-0.099 c -5.948,0 -13.996,9.772 -14.742,14.891 m 50.317,-20.179 c 0.641,-2.818 4.22,-7.787 9.925,-11.115 l -25.534,-1.56 c -10.011,-0.624 -17.088,9.441 -17.969,12.064 z m 145.902,0.862 39.544,-0.721 c -1.201,-2.339 -7.991,-10.893 -17.683,-10.308 l -28.442,1.737 c 2.485,2.867 4.691,5.977 6.581,9.292 m 6.342,15.671 45.478,1.677 c -0.992,-2.809 -9.09,-12.778 -17.876,-12.778 l -31.561,0.195 c 0,0 3.477,8.531 3.959,10.906 m 122.959,36.997 c 8.677,10.948 10.556,21.061 10.942,24.18 l 80.29,15.003 c 0.284,-4.261 -2.976,-11.698 -8.097,-18.367 -5.6,-7.294 -11.87,-11.863 -17.2,-12.533 z m -16.399,-26.298 c 7.616,8.148 8.753,14.055 9.309,16.942 0.06,0.302 0.112,0.572 0.163,0.808 l 73.917,7.93 c 0.295,-1.779 -1.006,-5.993 -3.841,-10.288 -2.22,-3.363 -8.431,-11.246 -18.159,-11.815 z m -7.895,-6.736 69.81,3.001 c 0.004,-1.181 -1.123,-3.388 -2.992,-5.817 -4.819,-6.259 -13.119,-12.595 -19.693,-12.595 l -57.725,0.17 c 4.45,3.306 9.486,8.44 10.6,15.241 m -15.223,-21.271 58.901,-1.073 c 0.172,-0.877 -0.309,-2.282 -1.304,-3.773 -3.287,-4.921 -11.598,-10.668 -24.207,-10.668 -1.155,0 -2.342,0.05 -3.537,0.149 l -39.461,2.41 c 2.433,1.841 8.132,6.309 9.608,12.955 m -25.822,-12.815 v 0 h -0.005 z m -3.851,58.426 -52.058,-6.54 c -0.358,4.976 -2.386,10.653 -4.288,13.911 l 77.124,14.412 c -0.858,-4.04 -6.525,-19.993 -20.778,-21.783 m 70.202,30.956 c -0.397,-4.277 -6.689,-22.976 -15.9,-24.134 l -36.498,-4.585 c 9.172,8.195 12.649,18.085 13.266,21.469 l 39.135,7.313 c 0,-0.021 -0.003,-0.041 -0.003,-0.063 m -121.692,-43.013 57.005,6.115 c -0.15,-2.866 -1.761,-10.362 -13.784,-15.222 l -43.901,-2.558 c 0.718,2.752 0.929,6.404 0.68,11.665 m 65.117,6.608 c 0.022,0.138 0.045,0.272 0.067,0.384 l 40.668,4.364 c -0.005,-0.022 -0.009,-0.042 -0.014,-0.065 -1.767,-7.828 -6.384,-13.731 -13.724,-17.548 l -36.49,-2.127 c 7.912,5.752 9.09,12.646 9.493,14.992 m -14.913,-20.876 38.813,1.668 c -0.745,-5.119 -8.794,-14.891 -14.759,-14.891 l -33.578,0.099 c 3.045,1.932 9.251,6.87 9.524,13.124 m 4.105,-31.186 -25.536,1.56 c 5.707,3.328 9.285,8.297 9.928,11.115 l 33.577,-0.611 c -0.881,-2.623 -7.959,-12.677 -17.969,-12.064 m -63.482,71.786 c 0.158,-0.262 0.248,-0.532 0.4,-0.797 l -0.052,-0.01 c -0.154,0.269 -0.305,0.541 -0.465,0.807 -10.123,16.848 -28.577,28.147 -49.623,28.147 -20.885,0 -39.218,-11.126 -49.391,-27.761 l -238.365,51.978 -0.531,0.118 v -0.552 c 0,-27.552 11.24,-38.169 26.807,-52.862 0.83,-0.784 1.669,-1.58 2.526,-2.391 3.08,-11.481 6.76,-21.157 22.862,-32.179 2.598,-10.842 14.467,-25.36 24.383,-26.628 8.199,-19.775 26.295,-22.321 41.164,-22.321 2.274,0 4.476,0.061 6.416,0.112 1.661,0.047 3.232,0.09 4.616,0.09 0.517,0 1.009,-0.007 1.529,-0.019 l 112.989,9.671 c 2.712,-3.089 4.928,-6.888 6.185,-11.187 0.846,-2.853 1.285,-5.899 1.243,-9.014 l 0.005,-0.292 0.002,-0.146 c 0.014,0.1 -0.026,-0.33 0.03,0.207 l -0.008,-0.09 -0.057,-0.723 -0.113,-1.45 -0.058,-0.713 -0.085,-0.513 -0.151,-1.036 -0.069,-0.526 -0.137,-0.58 -0.264,-1.169 c -0.144,-0.792 -0.458,-1.535 -0.67,-2.316 -2.021,-6.132 -6.103,-11.854 -11.64,-15.806 -0.71,-0.46 -1.401,-0.964 -2.129,-1.406 -0.747,-0.404 -1.471,-0.863 -2.238,-1.238 -0.78,-0.345 -1.538,-0.753 -2.337,-1.063 l -1.205,-0.45 -0.604,-0.229 -0.15,-0.057 -0.075,-0.03 c -0.067,-0.02 0.321,0.078 0.113,0.024 l -0.359,-0.101 -1.438,-0.403 c -0.46,-0.122 -1.011,-0.305 -1.358,-0.352 -0.791,-0.135 -1.519,-0.346 -2.37,-0.456 -0.855,-0.087 -1.708,-0.253 -2.569,-0.288 -0.86,-0.02 -1.726,-0.126 -2.588,-0.087 -6.915,0.02 -13.786,2.276 -19.334,6.171 -2.783,1.942 -5.245,4.274 -7.31,6.865 l -0.728,0.996 c -0.238,0.341 -0.377,0.598 -0.579,0.9 -0.36,0.615 -0.734,1.312 -1.02,2 -0.598,1.387 -1.013,2.844 -1.239,4.319 -0.475,2.958 -0.104,5.967 0.848,8.678 0.475,1.367 1.132,2.609 1.933,3.844 0.345,0.551 0.784,1.1 1.216,1.647 0.463,0.514 0.909,1.042 1.419,1.498 3.977,3.809 9.294,5.405 13.883,5.145 4.645,-0.215 8.519,-2.122 11.163,-4.24 1.33,-1.07 2.414,-2.175 3.226,-3.241 0.435,-0.511 0.754,-1.048 1.091,-1.507 0.292,-0.49 0.565,-0.934 0.792,-1.34 0.426,-0.828 0.737,-1.475 0.904,-1.929 0.184,-0.448 0.28,-0.68 0.28,-0.68 0,0 -0.075,0.24 -0.218,0.702 -0.126,0.471 -0.379,1.144 -0.733,2.02 -0.192,0.43 -0.426,0.903 -0.679,1.428 -0.299,0.497 -0.576,1.076 -0.973,1.638 -0.734,1.169 -1.746,2.411 -3.036,3.655 -2.565,2.46 -6.495,4.902 -11.612,5.614 -2.539,0.341 -5.344,0.285 -8.179,-0.45 -1.422,-0.345 -2.846,-0.863 -4.234,-1.546 -1.398,-0.665 -2.756,-1.519 -4.031,-2.538 -1.295,-1.026 -2.465,-2.15 -3.576,-3.578 -1.018,-1.29 -2.003,-2.797 -2.744,-4.428 -1.496,-3.256 -2.323,-7.028 -2.068,-10.916 0.116,-1.942 0.48,-3.904 1.106,-5.822 0.309,-0.972 0.688,-1.884 1.145,-2.851 0.243,-0.472 0.512,-1.014 0.75,-1.429 l 0.346,-0.579 0.173,-0.29 0.087,-0.144 0.043,-0.074 c -0.043,0.062 0.107,-0.164 0.112,-0.169 2.146,-3.265 4.821,-6.32 7.965,-8.968 6.265,-5.309 14.466,-8.934 23.284,-9.776 1.098,-0.14 2.209,-0.127 3.321,-0.191 1.115,-0.049 2.229,0.044 3.351,0.068 1.123,0.044 2.345,0.236 3.521,0.365 0.643,0.068 1.048,0.171 1.56,0.259 l 1.468,0.272 0.367,0.069 c -0.146,-0.039 0.305,0.073 0.295,0.071 l 0.103,0.028 0.205,0.055 0.822,0.222 1.644,0.452 c 1.095,0.318 2.153,0.747 3.233,1.125 1.068,0.41 2.097,0.916 3.147,1.38 1.032,0.504 2.026,1.082 3.041,1.63 7.966,4.65 14.412,11.972 18.132,20.485 0.427,1.078 0.942,2.128 1.277,3.239 l 0.541,1.654 0.267,0.827 0.225,0.908 0.432,1.826 0.207,0.914 0.126,0.731 0.244,1.434 0.122,0.715 0.015,0.088 0.04,0.39 0.019,0.215 0.038,0.428 c 0.476,4.426 0.281,8.894 -0.522,13.196 7.154,-3.174 15.06,-4.951 23.375,-4.951 7.191,0 14.073,1.328 20.429,3.737 -0.622,-3.925 -0.737,-7.972 -0.305,-11.982 l 0.039,-0.428 0.019,-0.215 0.039,-0.39 0.016,-0.088 0.122,-0.715 0.242,-1.434 0.127,-0.731 0.208,-0.914 0.432,-1.826 0.225,-0.908 0.267,-0.827 0.541,-1.654 c 0.335,-1.111 0.848,-2.161 1.276,-3.239 3.721,-8.513 10.166,-15.835 18.132,-20.485 1.014,-0.548 2.01,-1.126 3.039,-1.63 1.053,-0.464 2.081,-0.97 3.149,-1.38 1.081,-0.378 2.14,-0.807 3.232,-1.125 l 1.645,-0.452 0.823,-0.222 0.204,-0.055 0.102,-0.028 c -0.008,0.002 0.443,-0.11 0.295,-0.071 l 0.368,-0.069 1.467,-0.272 c 0.513,-0.088 0.919,-0.191 1.562,-0.259 1.176,-0.129 2.397,-0.321 3.52,-0.365 1.121,-0.024 2.237,-0.117 3.35,-0.068 1.112,0.064 2.225,0.051 3.322,0.191 8.819,0.842 17.019,4.467 23.285,9.776 3.144,2.648 5.818,5.703 7.964,8.968 0.005,0.005 0.156,0.231 0.113,0.169 l 0.043,0.074 0.084,0.144 0.174,0.29 0.345,0.579 c 0.239,0.415 0.509,0.957 0.753,1.429 0.458,0.967 0.836,1.879 1.144,2.851 0.626,1.918 0.989,3.88 1.107,5.822 0.255,3.888 -0.572,7.66 -2.069,10.916 -0.741,1.631 -1.725,3.138 -2.743,4.428 -1.112,1.428 -2.282,2.552 -3.577,3.578 -1.276,1.019 -2.633,1.873 -4.032,2.538 -1.387,0.683 -2.812,1.201 -4.234,1.546 -2.834,0.735 -5.639,0.791 -8.177,0.45 -5.118,-0.712 -9.048,-3.154 -11.613,-5.614 -1.289,-1.244 -2.3,-2.486 -3.036,-3.655 -0.396,-0.562 -0.673,-1.141 -0.974,-1.638 -0.251,-0.525 -0.486,-0.998 -0.678,-1.428 -0.353,-0.876 -0.606,-1.549 -0.733,-2.02 -0.142,-0.462 -0.217,-0.702 -0.217,-0.702 0,0 0.096,0.232 0.279,0.68 0.167,0.454 0.479,1.101 0.904,1.929 0.229,0.406 0.5,0.85 0.792,1.34 0.338,0.459 0.656,0.996 1.09,1.507 0.814,1.066 1.898,2.171 3.228,3.241 2.643,2.118 6.517,4.025 11.163,4.24 4.588,0.26 9.905,-1.336 13.883,-5.145 0.509,-0.456 0.956,-0.984 1.419,-1.498 0.431,-0.547 0.87,-1.096 1.214,-1.647 0.802,-1.235 1.46,-2.477 1.934,-3.844 0.951,-2.711 1.322,-5.72 0.848,-8.678 -0.227,-1.475 -0.64,-2.932 -1.237,-4.319 -0.287,-0.688 -0.662,-1.385 -1.024,-2 -0.199,-0.302 -0.338,-0.559 -0.577,-0.9 l -0.727,-0.996 c -2.065,-2.591 -4.529,-4.923 -7.31,-6.865 -5.549,-3.895 -12.42,-6.151 -19.335,-6.171 -0.861,-0.039 -1.727,0.067 -2.587,0.087 -0.861,0.035 -1.715,0.201 -2.569,0.288 -0.855,0.11 -1.58,0.321 -2.372,0.456 -0.346,0.047 -0.895,0.23 -1.357,0.352 l -1.437,0.403 -0.361,0.101 c -0.206,0.054 0.181,-0.044 0.114,-0.024 l -0.074,0.03 -0.151,0.057 -0.604,0.229 -1.205,0.45 c -0.799,0.31 -1.556,0.718 -2.337,1.063 -0.766,0.375 -1.491,0.834 -2.24,1.238 -0.726,0.442 -1.417,0.946 -2.128,1.406 -5.536,3.952 -9.617,9.674 -11.637,15.806 -0.213,0.781 -0.528,1.524 -0.671,2.316 l -0.266,1.169 -0.135,0.58 -0.069,0.526 -0.153,1.036 -0.083,0.513 -0.059,0.713 -0.112,1.45 -0.058,0.723 -0.007,0.09 c 0.056,-0.537 0.016,-0.107 0.03,-0.207 l 10e-4,0.146 0.005,0.292 c -0.042,3.115 0.397,6.161 1.244,9.014 1.307,4.472 3.644,8.413 6.507,11.564 l 117.45,-10.049 c 1.724,0.05 3.812,-0.006 6.094,-0.07 1.941,-0.051 4.141,-0.112 6.415,-0.112 14.87,0 32.966,2.546 41.165,22.321 9.915,1.268 21.786,15.786 24.385,26.628 16.103,11.022 19.782,20.698 22.863,32.179 0.856,0.811 1.816,1.607 2.647,2.391 15.567,14.693 26.931,25.31 26.931,52.862 v 0.552 z"
           style="fill:#231f20;fill-opacity:1;fill-rule:nonzero;stroke:none"
           id="path8507"
           inkscape:connector-curvature="0" /></g></g></g></svg>