<?xml version="1.0" encoding="utf-8"?>

<!DOCTYPE svg PUBLIC "-//W3C//DTD SVG 1.1//EN" "http://www.w3.org/Graphics/SVG/1.1/DTD/svg11.dtd">
<svg version="1.1" id="Layer_1" xmlns="http://www.w3.org/2000/svg" xmlns:xlink="http://www.w3.org/1999/xlink" x="0px" y="0px"
	 viewBox="0 0 1811.36 1665.535" enable-background="new 0 0 1811.36 1665.535" xml:space="preserve">
<g>
	<path d="M1058.805,32.858c3.479-0.651,7.586,2.307,6.82,6.104c-0.709,5.055-5.504,7.782-8.179,11.716
		c-31.183,43.252-25.224,88.224-100.085,175.588c-24.75,28.292-27.799,26.313-29.189,31.944c-0.578,3.975,8.093,4.682,17.805-2.886
		c29.266-22.517,57.032-34.766,98.284-34.222c6.817,0.575,12.971,2.745,7.919,7.319c-4.831,4.281-11.419,5.395-17.003,8.331
		c-38.757,19.9-67.208,72.519-210.707,182.039c-132.213,99.509-125.457,64.803-153.891,73.818c-2.387,0.499-5.12,2.039-7.435,0.593
		c-10.072-31.021,164.866-86.374,169.78-112.068c0.347-2.625-2.589-4.108-4.824-4.007c-9.146-0.309-16.083,11.183-127.263,65.479
		c-10.087,4.943-18.522,9.714-24.603,7.131c-2.054-0.875-3.218-3.442-2.025-5.453c2.372-4.751,7.76-6.523,12.135-8.874
		c35.33-18.673,195.706-111.554,223.486-139.565c6.824-7.29,3.566-10.921-0.072-9.959c-1.831,0.328-80.831,48.929-81.831,49.547
		c-146.647,89.362-163.623,111.208-147.158,65.248c-8.546-4.572-2.269-21.571,2.083-30.23c7.491-20.189,2.631-10.623,43.74-37.31
		C909.749,211.859,1015.909,39.19,1058.805,32.858z"/>
	<path d="M718.167,320.485c-19.066,11.782-21.657,3.835-11.6-4.419c1.012-0.787,86.771-67.724,88-70.383
		c1.099-1.808-0.832-3.717-2.669-3.544c-5.543,0.231-0.526-0.276-82.409,52.302c-24.162,15.107-26.197,14.189-27.431,17.863
		c1.338,3.016,5.316,3.363,6.986,6.126c7.527,11.953-14.417,60.719-67.331,90.603c-4.035,2.459-9.539,3.001-12.28,7.239
		c-1.454,1.844-0.015,4.368,2.01,4.968c14.907,4.999,33.316-15.504,48.498-21.834c8.155-2.783,8.282,1.81,5.316,9.843
		c-14.302,33.439-47.635,56.539-81.939,68.329c-29.335,9.764-36.077,4.213-41.078,10.472
		c-15.214,17.473,65.849,9.966,100.548-33.217c1.482-1.775,10.58-16.713,15.708-12.54c4.727,4.182,0.778,39.646-30.91,65.248
		c-34.177,27.702-61.024,19.915-70.354,25.16c-8.808,5.448,14.405,27.819,80.334-19.462c21.458-14.806,55.721-10.38,80.515-6.646
		c10.687,2.005,11.544,8.218,5.742,11.853c-7.658,4.649-16.035,0.101-51.991,26.144c-56.358,43.531-100.896,61.766-81.976,65.465
		c10.361,1.817,17.875-4.028,53.72-27.966c61.487-41.066,93.352-68.219,139.782-52.809c4.766,1.743,9.937,3.667,13.119,7.854
		c1.54,1.823,1.613,4.874-0.499,6.314c-4.564,3.363-10.581,1.678-15.701,3.334c-22.006,6.58-74.854,35.87-78.468,42.177
		c-2.806,4.441,1.358,9.553,8.707,6.704c4.672-1.757,7.767-5.901,11.839-8.592c10.913-7.492,22.933-13.184,35.112-18.276
		c80.082-32.803,122.797-14.156,117.673-2.444c-3.967,8.455-11.894,0.945-32.696,6.4c-26.011,6.987-83.839,38.975-84.926,45.569
		c0.629,2.314,3.32,2.849,5.395,2.871c16.955,0.804,46.907-26.958,88.557-37.108c11.622-2.76,55.461-10.989,53.648-2.683
		c-6.051,21.769-60.391,66.588-138.183,75.409c-4.209,0.579-9.004,0.08-12.548,2.82c-2.573,2.201,0.575,8.69,24.943,5.995
		c25.343-3.708,55.382-12.098,77.195-24.632c19.922-9.78,12.648,14.01-24.632,33.195c-28.616,14.224-68.01,23.957-94.95,24.423
		c-11.623,0.095-12.512,8.114-7.825,11.383c12.233,9.336,77.413-11.217,93.597-20.452c3.416-1.72,12.528-6.475,12.172-2.531
		c-2.529,16.572-54.429,69.908-130.756,64.04c-42.382-1.979-77.132,14.761-97.488-1.642c-10.523-8.425-27.167-32.617-27.511-34.172
		c-2.971-11.152-13.425-16.277-23.591-27.547c-4.187-4.578-9.727-7.63-13.965-12.143c-2.958-3.088-3.565-7.492-5.54-11.137
		c-8.324-16.347-22.308-11.575-24.191-20.756c0.174-4.433,4.686-6.574,7.189-9.662c7.355-8.621,13.17-18.427,18.89-28.176
		c32.728-58.617,2.373-46.342-4.723-49.872c-7.213-3.299-1.21-14.843,1.099-20.293c7.843-19.671-3.188-26.622-5.887-32.089
		c-8.247-15.645,3.273-19.199,6.762-23.389c11.289-11.029,15.65-26.78,25.247-39.039c2.35-3.153,5.569-6.01,6.241-10.067
		c2.327-11.444-11.971-13.421-14.356-15.007c-5.442-3.469,6.212-9.034,8.592-11.253c12.697-11.823,36.979-47.492,61.798-75.047
		c63.128-70.783,234.984-127.689,285.038-198.817C931.992,99.908,930.843,181.424,718.167,320.485z"/>
	<path d="M608.102,268.515c6.686,1.916,4.214,29.392,2.922,35.792c-9.016,46.205-50.568,85.529-91.168,121.499
		c-2.068,1.909-4.809,3.652-5.308,6.646c-0.571,3.211,3.269,5.851,6.126,4.397c4.486-2.397,4.935-6.328,22.817-10.429
		c8.686-1.394,10.549,2.281,8.483,6.198c-1.54,2.886-4.137,5.019-5.851,7.796c-5.764,9.018-10.718,18.572-17.256,27.07
		c-26.666,34.681-47.415,16.789-73.709,26.845c-25.729,11.255-80.565,65.921-61.017,66.738c7.498,0.272,7.575-12.399,28.704-31.206
		c4.589-3.686,13.958-11.043,15.867-5.316c1.371,5.292-4.092,8.516-10.703,17.017c-10.154,13.027-33.904,45.371-39.697,60.2
		c-3.073,8.498-0.088,11.914,2.821,11.231c8.694-1.743,5.883-13.877,35.698-51.623c67.01-83.434,135.219-66.901,73.369,19.057
		c-16.846,22.746-25.345,25.81-34.446,31.402c-19.485,11.645-46.253,26.32-54.696,41.49c-4.283,7.554,2.339,14.551,8.462,7.731
		c9.269-10.422,32.79-22.893,55.911-35.184c39.142-19.554,43.632-42.412,47.927-49.721c7.005-11.991,26.322,31.067-54.718,84.116
		c-1.181,0.828-15.09,8.029-8.519,12.201c6.231,4.212,8.895-4.4,26.911-8.129c36.757-6.96,45.721,16.584,28.943,14.276
		c-11.12-2.206-25.359,5.526-26.477,9.879c-0.81,3.16,2.271,5.901,5.207,6.212c3.609,0.289,7.181-0.745,10.797-0.673
		c60.183-0.567,77.17,51.396,59.896,44.636c-6.704-2.48-18.184-22.061-54.089-20.843c-7.074,0.266-20.367,1.184-20.467,7.558
		c0.484,11.217,19.08,1.254,53.836,13.56c52.108,18.621,50.453,75.713,30.389,46.343c-20.443-29.188-84.942-35.654-84.796-23.049
		c0.565,9.231,11.165,2.363,44.824,14.348c61.046,22.561,63.142,68.911,55.868,65.161c-8.798-3.791-7.618-18.289-34.208-27.12
		c-12.78-4.215-43.393-7.896-47.934-1.432c-1.794,2.437,0,5.757,2.415,6.986c2.842,1.736,6.249,0.846,9.329,0.463
		c53.413-7.039,95.945,69.162,79.647,69.797c-3.464-0.513-4.73-4.115-6.458-6.639c-3.45-4.759-8.245-8.324-12.967-11.716
		c-21.733-15.511-38.532-24.144-62.644-18.21c-6,1.527-15.626,4.595-15.563,10.299c0.865,7.016,11.378,2.037,14.508,1.627
		c15.31-2.224,36.133,4.619,50.314,11.029c30.637,13.13,47.069,61.752,37.303,73.471c-12.042-7.471-6.85-34.337-60.113-49.815
		c-1.576-0.408-15.05-5.463-14.37,2.792c0.072,3.797,3.37,6.834,6.964,7.492c22.687,5.164,42.12,21.385,52.729,41.895
		c18.456,36.127-4.724,59.231-33.644,48.679c-21.256-8.02-42.446-26.851-54.588-43.508c-8.738-12.116-7.526-19.803-14.999-19.389
		c-11.754,0.725-8.566,32.078,22.629,59.368c13.29,12.343-1.833,25.079-36.536-18.283c-6.234-8.028-12.128-16.482-16.091-25.884
		c-1.229-2.741-1.685-6.191-4.346-7.984c-1.916-1.397-25.399,1.013,12.287,54.219c21.409,30.043,35.923,43.136,49.156,66.528
		c31.423,55.009,31.691,124.325,11.282,170.974c-12.686,28.051-23.595,29.068-22.947,23.888c0.023-1,19.938-42.389-14.508-120.993
		c-24.84-55.065-44.913-68.139-42.127-54.797c3.149,11.022,18.504,33.383,28.776,51.644c25.007,44.748,24.811,98.35,12.844,129.678
		c-1.314,3.525-27.559,52.993-37.231,53.705c-3.453,0.026-1.54-2.786-12.627-11.21c-26.597-19.117-30.799-20.33-42.799-38.923
		c-10.596-16.536-22.373-42.277-24.69-54.573c-0.68-2.842-2.126-6.198-5.279-6.878c-7.155,2.429-7.64,41.633,42.713,89.208
		c30.371,29.108-23.892,10.001-53.59-48.419c-15.253-29.997-10.471-46.023-12.114-53.727c-0.521-2.076-1.439-4.585-3.768-5.135
		c-11.273,2.526-9.742,52.266,18.066,84.926c2.336,2.871,4.867,5.815,5.605,9.561c-11.59,5.349-60.486-32.81-68.09-99.918
		c-3.934-33.203,7.156-57.125,9.886-80.862c73.246,10.746,6.938-126.568,1.656-104.12c-2.396,9.561,36.239,61.266,13.647,87.609
		c-9.486,10.767-22.624,3.215-22.362-5.395c0.218-1.6,6.454-19.126-0.376-54.877c-10.004-48.532-25.682-34.93-18.413-20.091
		c5.589,11.042,7.97,35.24,6.986,51.08c-3.732,44.073-30.895,27.532-24.415,16.243c4.281-6.234,5.851-13.821,7.015-21.168
		c3.592-27.951-6.103-24.161-13.401-62.319c-0.492-2.17-1.439-4.918-3.992-5.236c-7.299,1.38-5.498,16.521-2.061,24.538
		c2.394,6.285,7.08,11.513,8.577,18.174c7.367,30.114-17.442,59.074-30.339,49.193c-4.354-3.327-6.755-8.975-6.415-14.413
		c0.108-3.197,2.199-5.786,3.45-8.592c20.537-43.972-15.314-80.91-9.778-57.285c6.502,21.103-4.445,69.401-20.554,65.472
		c-6.195-1.735-9.269-12.609-6.805-18.586c7.9-17.615,12.507-41.774,7.774-60.258c-2.518-9.281-12.487-5.433-10.718,3.247
		c2.987,13.825-1.232,42.793-4.13,56.54c-2.294,12.143-14.118,13.297-25.623,8.389c-17.624-7.656-10.41-17.922-8.78-26.578
		c6.489-31.687,4.655-81.909-19.498-115.858c-3.143-4.537-15.858-17.739-6.415-22.405c3.625-1.822,16.561-5.916,30.049,3.753
		c20.77,15.123,26.365,35.921,37.238,31.611c16.957-6.829,24.753-71.261,115.243-36.667c31.981,12.279,59.268,28.882,81.093,27.301
		c23.599-1.281,40.977-19.518,42.763-40.247c3.732-63.285-68.722-74.734-92.202-149.552c-13.335-42.73,0.516-102.942,20.409-143.39
		c38.947-80.082,114.567-137.406,177.627-192.055c37.915-32.962,63.19-54.809,69.659-104.048
		C600.511,281.997,601.778,267.406,608.102,268.515z"/>
	<path d="M1397.215,314.634c9.434,9.175-22.491,131.171-116.863,177.504c-21.809,11.002-43.327,13.799-96.989,35.3
		c-13.56,5.797-9.492,13.991-4.527,13.401c35.011-4.246,37.389,6.764,84.348-12.54c4.602-1.809,15.74-8.349,20.272-3.782
		c5.556,5.501-4.948,22.44-18.239,32.718c-21.994,16.812-42.905,20.062-80.327,34.685
		c-117.913,46.165-227.86,103.541-335.113,106.087c-12.715,0.34-4.202-10.12-5.88-18.731c33.334-25.291,9.714-19.781,81.144-34.316
		c23.866-5.082,72.58-7.467,92.542-7.963c4.744-0.152,10.002,0.325,14.175-2.416c1.519-0.904,2.155-3.117,0.644-4.361
		c-10.373-9.111-118.867,5.789-132.036,9.742c-33.943,9.234,13.601-51.602,126.583-53.546c19.446-0.482,17.552-8.732,2.741-11
		c-29.144-3.071-71.53,6.429-99.029,16.583c-1.749,0.615-17.228,7.92-16.504-0.441c0.46-9.112,13.125-14.116,23.83-18.109
		c42.478-14.912,80.956-15.705,87.501-16.301c12.211-1.172,75.156-8.728,78.555-20.561c-0.912-5.856-6.345-0.916-54.009,5.352
		c-46.994,5.723-41.514,2.2-80.139,12.309c-43.33,11.503-53.46,19.09-53.995,11.325c2.534-29.403,195.834-33.935,302.865-86.604
		c104.445-51.872,116.886-95.93,94.892-78.772c-23.909,20.525-51.174,36.717-79.104,51.124
		c-117.557,59.956-162.171,48.852-276.801,79.683c-16.317,4.357-30.268,10.245-37.563,8.83c-1.319-0.262-6.804-3.869,6.711-9.995
		c22.193-8.949,30.298-7.852,68.22-34.41c22.733-16.541,21.438-20.087,33.325-27.439c28.135-18.364,268.451-38.311,350.322-140.064
		C1380.874,325.393,1390.435,308.645,1397.215,314.634z"/>
	<path d="M986.563,437.652c-47.546,28.667-111.429,61.051-165.752,71.489c-25.839,4.673-68.272,6.757-75.156,4.477
		c-10.88-3.078-21.587-28.615,88.108-43.863c73.386-9.521,77.809-20.88,128.087-35.922
		C990.869,425.539,1011.931,421.264,986.563,437.652z"/>
	<path d="M1021.285,435.251c4.316,13.316-39.872,68.406-80.283,80.696c-31.931,9.969-80.792,26.194-99.145,25.421
		c-13.42-1.357-29.799-7.268-33.484-14.638c-4.452-7.448,12.41-7.51,15.383-8.187c40.42-8.369,107.549-33.582,181.048-78.598
		C1008.033,438.065,1018.957,429.413,1021.285,435.251z"/>
	<path d="M1212.074,756.84c57.475,9.917,124.693,15.426,182.241,17.74c63.75,1.936,63.807-1.555,68.604,2.98
		c2.954,2.891,0.807,11.026-13.712,13.922c-55.308,13.967-90.574,8.72-108.344,8.888c-106.81,0.669-205.641,39.425-436.818,22.759
		c-80.905-6.215-89.142-12.975-119.865-22.6c-29.685-9.747-38.843-12.335-46.502-12.635c-7.766-0.248-9.37-7.822-5.12-11.246
		c4.642-4.116,31.261,1.519,37.122,2.792c21.526,4.639,22.119,8.465,128.601,18.435c32.466,2.376,57.063,8.33,155.121-8.606
		c10.858-1.954,34.54-6.218,41.346-10.298c-1.456-11.071-24.167-3.306-75.083,0.81c-149.686,11.31-178.79-2.49-251.329-12.28
		c-6.768-1.229-6.352-6.796-0.969-9.561c11.822-5.662,49.148,7.927,106.999,9.821c51.088,1.396,56.232,0.231,59.643-4.404
		c1.244-1.526,0.101-3.551-1.454-4.26c-3.524-1.82-128.691-9.492-133.989-14.406c-3.637-3.794,8.225-10.594,13.676-12.562
		C852.732,720.501,1055.295,729.566,1212.074,756.84z"/>
	<path d="M587.1,749.152c5.056,0.014,12.414,7.918,19.917,10.602c34.454,13.114,147.429-0.803,205.89,115.995
		c1.032,2.239,12.013,24.081,4.636,29.955c-4.745,3.366-12.53-9.705-16.077-14.023c-28.674-36.872-66.838-57.893-113.753-60.243
		c-10.678-0.137-14.751,7.65,2.401,10.884c71.354,11.744,113.829,58.837,125.715,99.282c5.903,20.651-0.894,32.851-4.773,28.632
		c-8.784-8.068-6.454-22.446-26.231-43.226c-24.796-25.826-62.354-38.943-82.583-39.726c-11.198-0.139-15.051,12.79-2.669,15.585
		c36.105,6.477,65.281,24.881,85.447,57.22c14.78,23.477,31.665,54.954,31.373,82.807c0.08,19.185-12.137,39.047-16.742,34.916
		c-2.835-2.922-3.312-7.247-4.122-11.058c-6.824-45.911-51.159-118.191-101.271-125.028c-3.985-0.477-8.367-1.135-12.085,0.781
		c-1.801,0.796-2.741,3.103-1.584,4.817c2.235,3.797,6.719,5.135,10.566,6.711c78.899,32.565,107.741,139.824,95.738,163.358
		c-6.827,13.469-22.593,11.396-33.333,11.774c-24.78,0.792-29.328-6.531-48.368-22.079c-19.297-16.084-21.411-14.896-39.653-20.93
		c-33.859-11.163-34.266-12.035-83.024-61.017c-3.774-4.065-8.341-6.94-3.949-9.575c5.381-3.188,15.725-2.428,23.063-13.958
		c8.635-13.398,5.261-27.393,8.266-33.911c1.938,0.231,3.428,1.54,4.679,2.958c8.844,10.327,93.926,95.841,91.24,73.601
		c-0.806-5.68-6.536-7.557-34.222-33.738c-30.663-29.329-23.155-27.748-45.273-50.856c-3.168-3.414-7.543-6.14-8.83-10.87
		c-1.201-3.869,0.933-7.594,1.172-11.419c0.689-9.734-0.525-23.04-5.525-31.749c5.072-12.45,0.785-36.872-7.21-50.191
		c5.318-14.53,0.505-37.412-7.796-49.764C607.992,769.02,589.498,754.142,587.1,749.152z"/>
	<path d="M789.048,819.129c37.075,12.085,112.772,19.601,151.816,22.571c82.277,6.132,133.09,3.301,222.141-7.485
		c200.651-23.567,129.685-2.636,361.944,28.711c65.796,8.465,169.885,19.483,236.062,12.721c13.477-1.091,15.494,5.25,14.471,7.984
		c-6.267,18.476-105.274,66.422-170.301,87.197c-103.064,33.112-202.699,38.203-309.924,27.222
		c-88.374-8.36-63.667-3.03-143.86-10.675c-126.547-12.113-76.852-17.534-197.349-23.417
		c-118.077-4.567-114.833,8.394-119.105-10.696c-2.031-10.101-6.763-28.739-14.385-35.575c3.385-0.224,6.241-2.437,8.035-5.214
		c5.775-8.73,3.286-16.314-3.667-37.151c15.563,2.473,30.765,6.697,46.126,10.147c81.597,18.882,188.501,2.007,315.594,23.287
		c115.721,20.248,221.687,42.641,311.833,40.999c76.247-1.779,129.884-25.89,128.738-34.085c-3.392-4.554-16.616,0.082-30.324,2.054
		c-61.054,9.694-140.863,9.957-201.833,5.171c-82.615-6.853-106.993-24.645-229.857-37.043
		c-66.001-6.134-247.793,2.745-345.607-21.573c-5.272-10.016-11.159-20.011-19.657-27.655
		C798.681,829.638,793.908,824.011,789.048,819.129z"/>
	<path d="M1124.624,1001.624c46.374,4.381,105.417,1.581,135.081,6.249c44.641,6.804,82.295,27.092,105.509,37.325
		c6.683,3.207,12.859,8.617,7.435,13.546c-6.053,5.559-5.047,3.748-98.284-3.876c-40.049-3.14-262.059-16.873-324.156-40.637
		c-26.895-10.402-63.191-16.085-91.732-18.044c-7.479-0.624-16.211,0.617-16.995-4.694
		C839.812,965.107,1073.087,996.886,1124.624,1001.624z"/>
	<path d="M591.287,1055.416c38.869,35.833,70.913,43.558,77.528,46.068c20.785,7.367,37.557,20.193,37.592,27.388
		c0,8.458-16.777,5.167-20.098,5.034c-21.895-1.055-24.154-0.991-45.743-12.765c-68.846-38.66-65.331-59.304-109.537-110.405
		c-1.779-2.415-2.922-5.381-2.849-8.396C528.513,982.524,583.518,1048.415,591.287,1055.416z"/>
	<path d="M839.195,1010.129c32.657,25.962,118.964,81.148,155.598,103.925c64.382,40.153,137.393,133.438,142.761,149.581
		c3.731,12.149-5.314,14.982-13.495,8.288c-15.962-13.182-39.176-15.693-84.218-48.093
		c-181.079-133.262-146.711-138.877-205.362-201.912C825.698,1011.118,832.022,1005.313,839.195,1010.129z"/>
	<path d="M497.422,1016.276c3.949,2.69,8.187,5.417,13.032,5.966c3.558,0.427,7.637-0.246,10.631,2.17
		c15.452,13.532,40.461,89.546,26.411,96.758c-5.114,0.276-6.67-14.411-7.283-16.894c-9.164-38.454-45.409-79.903-47.724-83.133
		C488.46,1014.832,494.163,1013.981,497.422,1016.276z"/>
	<path d="M201.109,1073.858c10.691,19.355,25.59,25.184,45.924,16.496c8.913,11.263,23.727,3.664,28.437,2.661
		c7.292-1.577,14.802,8.807,15.679,17.111c1.849,16.444-13.61,49.71-9.257,77.521c0.759,5.684,4.824,10.631,4.173,16.561
		c-0.408,15.487-35.141-26.477-35.372-80.385c-0.084-8.182-4.372-10.327-6.444-8.794c-6.401,4.579-4.496,36.401,2.994,58.862
		c10.824,31.755,20.676,33.479,23.931,40.377c6.468,12.952-4.731,31.801-2.538,76.002c8.602,164.248,34.271,176.747,37.498,190.623
		c3.799,16.281-42.043,5.156-66.889-61.176c-4.69-13.132-25.916-23.619-0.239,36.508c18.54,42.909,52.265,82.331,65.978,133.591
		c9.939,34.91-30.998,51.426-97.604-24.481c-45.675-53.176-54.632-91.505-60.569-113.153
		c-12.951-49.069-24.96-121.119-18.55-170.764c1.485-12.582,12.047-8.091,12.078-0.651c-2.542,26.055,8.786,127.485,22.34,136.802
		c3.127,2.189,6.519,1.381,5.106-7.362c-3.677-13.977-26.868-137.409-5.966-127.762c12.193,4.458,0.805,29.213,17.509,121.991
		c13.494,74.239,41.241,117.368,50.089,124.233c7.139,5.553,9.901,3.193,8.852-0.362c-1.179-4.947-4.13-9.192-6.437-13.647
		c-47.535-89.188-51.931-206.833-45.179-229.365c3.678-12.275,17.559-20.204,28.827-44.296
		c25.999-54.342-4.921-125.609-18.124-125.448c-6.336,0,0.387,11.867,0.933,13.162c14.419,32.109,16.747,59.663,9.908,90.625
		c-11.222,48.218-37.87,54.124-34.114,41.266c1.709-6.35,11.763-15.007,11.615-49.272c-0.292-29.07-8.437-58.423-14.023-66.861
		c-4.613-6.664-14.158-5.275-11.231,5.547c9.614,31.852,18.725,64.485,7.203,93.655c-2.82,7.164-10.188,23.346-17.957,23.331
		c-11.419-0.231-29.169-26.451-34.728-38.265c-17.808-37.967,4.792-74.785,8.765-141.062
		C129.225,1029.661,163.234,1086.201,201.109,1073.858z"/>
	<path d="M848.351,1074.841c4.448-2.011,10.503,7.935,13.748,11.333c31.501,35.016,97.129,100.162,154.795,147.52
		c54.849,44.661,49.437,32.667,100.078,72.747c108.901,87.343,127.905,146.384,173.953,173.266
		c12.943,7.97,12.099,16.845,6.798,19.896c-12.835,7.356-103.817-15.68-187.108-58.009
		c-97.202-49.153-173.261-112.692-182.161-103.072c-11.653,12.123,57.544,68.393,58.037,75.351
		c-1.039,23.108-105.186-19.617-232.533-131.356c-81.512-71.798-209.125-208.495-179.811-196.047
		c4.137,1.454,6.429,5.525,9.358,8.519c18.153,19.256,51.175,42.885,78.866,50.856c19.891,6.036,18.376-2.544,41.57,18.283
		c52.517,50.088,73.313,91.764,163.402,159.106c4.255,3.101,13.719,9.516,16.67,4.867c6.377-10.028-35.312-27.378-111.417-107.519
		c-0.982-1.009-53.467-55.004-54.689-58.688c-1.07-2.712,0.853-6.14,3.884-6.118c8.049-0.28,151.865,148.406,179.356,147.194
		c9.346,0.507,1.575-2.524-153.052-141.134c-2.663-2.544-13.455-10.323-9.409-15.238c2.432-3.39,10.945-0.311,27.974-2.719
		c3.189-0.376,6.588-2.893,9.662-0.839c3.739,2.488,6.017,6.531,9.272,9.561c121.65,123.028,195.766,165.234,311.175,233.423
		c5.718,3.357,16.079,8.721,19.867,3.233c2.846-4.063-5.543-9.309-9.908-11.68c-111.598-56.969-230.802-144.636-313.062-244.401
		c8.007-6.932,13.448-21.811,14.334-33.21c1.36-0.007,2.784,0.326,4.086-0.282c3.92-1.555,4.968-6.538,8.953-8.035
		c7.158-3.567,11.331,9.006,13.032,12.475c40.251,84.843,191.23,208.403,184.642,178.271c-1.451-6.955-8.531-8.68-19.447-17.292
		c-44.621-35.629-123.415-129.466-148.54-172.608C847.548,1087.187,843.254,1077.049,848.351,1074.841z"/>
	<path d="M630.181,1277.499c6.88,27.52,14.45,80.367,8.136,89.779c-3.907,5.966-12.837,1.275-17.993-3.797
		c-28.216-27.976-31.211-29.11-49.605-58.204c-24.446-39.406-29.864-53.443-27.504-75.865c1.969-21.148,13.009-47.835,9.597-81.723
		c-0.398-4.607-1.866-9.112-1.598-13.763C552.563,1109.894,610.228,1198.303,630.181,1277.499z"/>
	<path d="M92.773,1206.053c2.9,9.206,3.753,19.02,7.514,27.981c3.668,8.863,6.464,7.506-0.622,21.978
		c-5.279,11.202-10.291,22.709-12.425,34.996c-5.297,29.835-2.898,80.66,11.571,126.178c1.348,4.534,9.527,21.545,1.692,25.616
		c-18.829,9.275-115.654-128.526-27.012-233.987C81.744,1198.74,90.811,1199.813,92.773,1206.053z"/>
	<path d="M532.707,1262.261c4.152,2.768,2.276,7.529,18.615,37.853c11.368,20.86,29.196,48.776,49.25,61.371
		c14.013,8.821,6.851,8.489,44.13,75.828c19.546,34.955,30.112,50.011,56.953,84.825c61.418,79.44,72.2,84.152,71.858,98.537
		c-0.519,32.531-118.283-7.316-184.512-64.004c-69.845-59.1-107.375-138.716-139.42-203.286c-1.736-3.58-4.173-7.449-3.052-11.593
		c1.034-3.319,5.272-4.26,8.151-2.799c7.31,2.909,6.581,15.637,54.465,87.877c6.565,9.737,37.875,55.695,49.12,59.375
		c6.098,2.019,10.176-1.952,7.066-8.505c0,0-25.604-34.953-50.661-70.065c-62.118-88.165-53.353-73.628-37.997-91.319
		c23.064-24.17,5.926,37.079,92.744,147.824c70.052,90.205,190.309,158.531,162.599,126.728
		c-16.332-18.586-135.631-64.251-228.845-275.188c-9.604-21.936-5.02-22.769,0.333-33.557
		C521.746,1275.851,523.767,1255.907,532.707,1262.261z"/>
	<path d="M112.588,1265.884c12.696,16.202,1.566-1.943,4.202,70.585c1.289,28.16,5.017,72.011,12.555,99.072
		c3.496,16.536-10.41,11.762-13.227-0.296c-13.037-49.052-22.328-114.934-12.483-164.515
		C105.401,1264.01,107.966,1260.654,112.588,1265.884z"/>
	<path d="M333.391,1285.96c17.292,17.292,38.464,13.532,41.346,30.852c3.75,22.296-2.241,12.251,24.177,71.323
		c1.439,3.103,2.929,6.567,6.003,8.404c16.47,10.481-24.846-65.773-16.923-77.029c2.803-4.189,10.987-1.363,13.98,7.485
		c5.43,17.412,45.737,125.076,61.928,132.665c3.352,1.857,9.206-0.287,3.565-9.894c-6.045-9.419-56.32-111.577-52.642-120.964
		c1.905-5.164,11.014-2.546,14.551,5.692c9.123,25.226,40.813,87.825,55.318,113.847c17.553,31.81,44.352,63.875,56.135,92.86
		c15.812,40.034-10.945,53.003-35.611,36.479C390.423,1501.876,286.904,1249.23,333.391,1285.96z"/>
</g>
</svg>
